Coordinates
version=1
nRows=10
nColumns=40
inDegrees=yes

Units are S.I. units (second, meters, Newtons, ...)
Angles are in degrees.

endheader
time	pelvis_tilt	pelvis_list	pelvis_rotation	pelvis_tx	pelvis_ty	pelvis_tz	hip_flexion_r	hip_adduction_r	hip_rotation_r	knee_angle_r	knee_angle_r_beta	ankle_angle_r	subtalar_angle_r	mtp_angle_r	hip_flexion_l	hip_adduction_l	hip_rotation_l	knee_angle_l	knee_angle_l_beta	ankle_angle_l	subtalar_angle_l	mtp_angle_l	lumbar_extension	lumbar_bending	lumbar_rotation	arm_flex_r	arm_add_r	arm_rot_r	elbow_flex_r	pro_sup_r	wrist_flex_r	wrist_dev_r	arm_flex_l	arm_add_l	arm_rot_l	elbow_flex_l	pro_sup_l	wrist_flex_l	wrist_dev_l
      1.53000000	     -2.77832947	     -0.38355762	      8.00561350	      0.36967560	      0.87643682	     -1.45860312	     29.65655133	     -3.26149968	    -23.18998821	    -17.93444795	     -0.31301517	      5.94190279	     -1.17036505	      9.02363913	     -0.09647741	      1.26435660	     10.10221307	    -28.05838243	     -0.48971116	     14.29707827	     -1.50261789	     -6.87972375	     -3.90428340	     -1.90007754	    -10.73573050	     -8.68597843	     -5.16325775	    -18.60483344	     20.77816403	     89.95437384	      0.00000000	      0.00000000	      6.31693185	     18.43521036	     20.86226836	     57.59302995	     89.95437384	      0.00000000	      0.00000000
      1.54000000	     -2.87867346	     -0.20130478	      7.85718363	      0.38034702	      0.87536180	     -1.45819634	     29.89716306	     -3.20619687	    -23.08645558	    -18.13428437	     -0.31650297	      5.84028557	     -1.15221793	      8.83695054	     -0.50480146	      1.18101391	      9.80700645	    -28.56897386	     -0.49862266	     13.91720219	     -1.44913662	     -6.76274172	     -3.68291529	     -1.98113076	    -10.65459320	     -8.94957510	     -5.19788343	    -18.54013153	     20.93099920	     89.95437384	      0.00000000	      0.00000000	      6.22141528	     18.45459679	     20.82239214	     57.70777644	     89.95437384	      0.00000000	      0.00000000
      1.55000000	     -2.32640073	     -0.36296524	      8.10560364	      0.39166787	      0.87537183	     -1.45801032	     29.03715359	     -2.86324031	    -24.01473458	    -18.05794902	     -0.31517067	      6.15219970	     -1.19975973	      8.58574076	     -1.55390431	      1.62510884	      9.14489137	    -29.09014837	     -0.50771887	     13.57280954	     -1.12389998	     -6.82807458	     -4.13479717	     -1.61384607	    -10.99706552	     -8.81863097	     -5.26233616	    -18.69191931	     20.57289209	     89.95437384	      0.00000000	      0.00000000	      5.95115578	     18.55650523	     20.63062239	     57.99654566	     89.95437384	      0.00000000	      0.00000000
      1.56000000	     -2.46804394	     -0.16918440	      8.03045994	      0.40294083	      0.87425820	     -1.45764463	     29.09692947	     -2.82787736	    -23.64442557	    -18.53354362	     -0.32347136	      5.92984476	     -1.21708136	      8.39343231	     -1.89263030	      1.55203282	      8.81968694	    -29.62976404	     -0.51713694	     13.14400379	     -1.06938823	     -6.68456488	     -3.79275670	     -1.72847547	    -10.92444486	     -9.17281264	     -5.32270201	    -18.62356494	     20.78512357	     89.95437384	      0.00000000	      0.00000000	      5.71467021	     18.48890029	     20.56783107	     58.04085537	     89.95437384	      0.00000000	      0.00000000
      1.57000000	     -2.03885613	     -0.19806255	      8.07670375	      0.41458159	      0.87398667	     -1.45725986	     28.63408427	     -2.62152666	    -23.75494586	    -19.65323109	     -0.34301359	      6.00455368	     -2.35441956	      8.19388415	     -2.77231526	      1.77011319	      8.12775283	    -30.30982179	     -0.52900619	     12.70261308	     -0.45480666	     -6.60213641	     -4.06446567	     -1.50873158	    -11.09708753	     -9.05321436	     -5.42336865	    -18.60399322	     20.42054885	     89.95437384	      0.00000000	      0.00000000	      5.30541466	     18.56051335	     20.33599813	     58.15050032	     89.95437384	      0.00000000	      0.00000000
      1.58000000	     -2.00748409	     -0.07632667	      8.06474496	      0.42616024	      0.87309632	     -1.45696067	     28.43321820	     -2.49868804	    -22.87444525	    -20.52474518	     -0.35822438	      5.44619303	     -2.55556590	      7.98251096	     -3.17526270	      1.73037515	      7.38802305	    -31.05818826	     -0.54206764	     12.05424230	     -0.18565898	     -6.43474812	     -3.90165316	     -1.48307837	    -11.12571282	     -9.33414291	     -5.51842875	    -18.59600647	     20.65065906	     89.95437384	      0.00000000	      0.00000000	      4.91532869	     18.47060869	     20.25594891	     58.14129146	     89.95437384	      0.00000000	      0.00000000
      1.59000000	     -1.75108757	      0.04865224	      8.04191517	      0.43779728	      0.87291402	     -1.45669401	     27.86926395	     -2.15791609	    -21.59112611	    -20.99365947	     -0.36640848	      3.36661452	     -5.92647746	      8.15884029	     -3.92578448	      1.44220160	      5.94494856	    -31.56912067	     -0.55098510	     11.60651870	      2.17766154	     -6.60555242	     -3.98701393	     -1.41901853	    -11.20861868	     -9.28673610	     -5.60632650	    -18.80499846	     20.47806586	     89.95437384	      0.00000000	      0.00000000	      4.51217386	     18.29559577	     20.32272519	     58.00041756	     89.95437384	      0.00000000	      0.00000000
      1.60000000	     -1.68957128	      0.01368780	      7.91390234	      0.44955692	      0.87243111	     -1.45603364	     27.87346695	     -2.04806917	    -21.22219089	    -22.25813064	     -0.38847767	      2.29762869	     -6.43462239	      8.07415459	     -4.25337572	      1.59288456	      5.37308927	    -32.43507335	     -0.56609882	     10.62640879	      2.50213289	     -6.45837409	     -3.79600422	     -1.21612539	    -11.09363268	     -9.41029209	     -5.74424625	    -18.73571041	     20.42735792	     89.95437384	      0.00000000	      0.00000000	      4.17490777	     18.07785475	     20.28522659	     57.58737953	     89.95437384	      0.00000000	      0.00000000
      1.61000000	     -1.63378531	     -0.06640796	      7.76591923	      0.46121336	      0.87219217	     -1.45523848	     27.87720767	     -1.86244076	    -20.30418601	    -23.50432370	     -0.41022784	      1.53065555	     -6.36422092	      7.86936910	     -4.47214087	      1.74423629	      4.57851170	    -33.43059496	     -0.58347395	      9.53412441	      2.64636887	     -6.21796644	     -3.61750341	     -0.97777397	    -10.97903505	     -9.55546097	     -5.87385924	    -18.66601307	     20.62228403	     89.95437384	      0.00000000	      0.00000000	      3.74889567	     17.80828167	     20.32096223	     57.19520517	     89.95437384	      0.00000000	      0.00000000
      1.62000000	     -1.60035104	     -0.24075357	      7.60067871	      0.47304759	      0.87233387	     -1.45441185	     27.83170013	     -1.62040920	    -19.80453539	    -24.61523560	     -0.42961691	      0.14663754	     -7.44245201	      7.95102776	     -4.46691214	      2.01356700	      4.07415656	    -34.68921816	     -0.60544107	      7.81949885	      3.82918458	     -5.92572632	     -3.33027006	     -0.65101174	    -10.88943950	     -9.36104395	     -6.02422635	    -18.73866129	     20.07134315	     89.95437384	      0.00000000	      0.00000000	      3.39608262	     17.36697958	     20.63490652	     56.38243685	     89.95437384	      0.00000000	      0.00000000
